#!OML:ASF X:\für Bonn\!DataBase\2005_08_12_Daniel\c3d\Daniel.ASF
:FULLY-SPECIFIED
:DEGREES
33
root -4.06543 15.9748 -1.03028 -134.6 -88.9108 121.077
lowerback 27.1351 -2.01082 1.78711
upperback 2.27604 -2.66295 -2.36895
thorax -12.7782 -1.50572 -2.72555
lowerneck 8.50743 2.67431 -2.16099
upperneck 4.57872 3.20252 0.556783
head -0.0310157 1.49548 0.443005
rclavicle -2.2239e-014 -9.54166e-015
rhumerus 60.0983 -7.15258 -126.687
rradius 6.65992
rwrist 91.1617
rhand -20.9926 7.14688
rfingers 7.12502
rthumb 5.38145 -22.7648
lclavicle -2.2239e-014 -9.54166e-015
lhumerus 58.9382 4.54313 101.081
lradius 8.90425
lwrist -76.7397
lhand -15.0898 4.11733
lfingers 7.12502
lthumb 11.0781 33.8049
rfemur -10.2667 -14.3754 8.56276
rtibia 55.8747
rfoot 335.417 9.32153
rtoes -9.80561
lfemur -553.089 172.64 -192.936
ltibia 57.8407
lfoot -29.7519 -10.0604
ltoes -1.39506
34
root -4.04618 15.8773 -1.02616 -138.512 -88.8741 124.841
lowerback 27.5958 -2.01086 1.80279
upperback 2.33588 -2.66259 -2.37112
thorax -12.9548 -1.51013 -2.72938
lowerneck 8.39114 2.67064 -2.10563
upperneck 4.59193 3.20759 0.5164
head -0.00630915 1.49991 0.422831
rclavicle -9.36773e-015 -2.34566e-014
rhumerus 60.3246 -6.93372 -126.567
rradius 6.57326
rwrist 91.1835
rhand -20.922 7.11846
rfingers 7.12502
rthumb 5.44964 -22.7915
lclavicle -9.36773e-015 -2.34566e-014
lhumerus 59.1379 4.51634 101.086
lradius 8.84798
lwrist -76.5711
lhand -15.0121 4.2215
lfingers 7.12502
lthumb 11.1531 33.9051
rfemur -11.3761 -14.932 8.20652
rtibia 57.9514
rfoot 335.648 10.3171
rtoes -9.38486
lfemur -553.906 172.051 -192.665
ltibia 59.4672
lfoot -30.0594 -10.7645
ltoes -1.25738
35
root -4.02556 15.7748 -1.02081 -143.088 -88.7912 129.252
lowerback 28.106 -1.97873 1.81165
upperback 2.3842 -2.62212 -2.37201
thorax -13.1671 -1.49638 -2.74276
lowerneck 8.30969 2.66561 -2.06928
upperneck 4.58972 3.20791 0.495933
head 0.00726146 1.50156 0.41153
rclavicle -7.35503e-015 -4.77083e-015
rhumerus 60.6017 -6.70487 -126.444
rradius 6.47575
rwrist 91.2101
rhand -20.8036 7.04973
rfingers 7.12502
rthumb 5.56398 -22.8572
lclavicle -7.35503e-015 -4.77083e-015
lhumerus 59.3353 4.4455 101.127
lradius 8.71937
lwrist -76.4353
lhand -15.0232 4.38915
lfingers 7.12502
lthumb 11.1423 34.0733
rfemur -12.5257 -15.4421 7.83215
rtibia 60.0836
rfoot 335.938 11.3001
rtoes -8.95936
lfemur -554.732 171.431 -192.409
ltibia 61.1573
lfoot -30.3655 -11.4387
ltoes -1.08625
36
root -4.0041 15.6659 -1.0143 -147.76 -88.6731 133.745
lowerback 28.6313 -1.94686 1.82443
upperback 2.44876 -2.58412 -2.38729
thorax -13.3683 -1.48509 -2.77447
lowerneck 8.18958 2.65709 -2.0492
upperneck 4.57884 3.20407 0.471418
head 0.0242266 1.50138 0.402172
rclavicle 1.98536e-014 -3.97569e-016
rhumerus 60.8909 -6.47803 -126.331
rradius 6.3965
rwrist 91.2358
rhand -20.674 6.99185
rfingers 7.12502
rthumb 5.68913 -22.9118
lclavicle 1.98536e-014 -3.97569e-016
lhumerus 59.5899 4.36723 101.153
lradius 8.57562
lwrist -76.3599
lhand -15.035 4.50277
lfingers 7.12502
lthumb 11.131 34.1876
rfemur -13.7257 -15.9121 7.45107
rtibia 62.2576
rfoot 336.395 12.2672
rtoes -8.6252
lfemur -555.584 170.821 -192.152
ltibia 62.9096
lfoot -30.6534 -12.1316
ltoes -0.921463
37
root -3.98283 15.5512 -1.00777 -151.364 -88.5524 137.192
lowerback 29.1952 -1.9107 1.82286
upperback 2.12601 -2.54847 -2.50367
thorax -13.2565 -1.44453 -2.69258
lowerneck 8.13642 2.65127 -2.00719
upperneck 4.51252 3.20412 0.455361
head 0.0134261 1.50385 0.390604
rclavicle -2.00773e-014 -1.90833e-014
rhumerus 61.2035 -6.23384 -126.223
rradius 6.29687
rwrist 91.2349
rhand -20.5584 6.95072
rfingers 7.12502
rthumb 5.80072 -22.9499
lclavicle -2.00773e-014 -1.90833e-014
lhumerus 59.8528 4.28929 101.186
lradius 8.35282
lwrist -76.3126
lhand -15.1843 4.7238
lfingers 7.12502
lthumb 10.987 34.4163
rfemur -14.9968 -16.3723 7.07831
rtibia 64.474
rfoot 337.035 13.1667
rtoes -8.13324
lfemur -556.494 170.219 -191.899
ltibia 64.7153
lfoot -30.9034 -12.8003
ltoes -0.713369
38
root -3.96354 15.4318 -1.00378 -152.844 -88.4841 138.487
lowerback 29.7054 -1.89567 1.80159
upperback 2.1827 -2.5422 -2.50744
thorax -13.4199 -1.44393 -2.67494
lowerneck 8.10448 2.64838 -2.01985
upperneck 4.38703 3.20403 0.447224
head -0.0202134 1.50622 0.389805
rclavicle 2.41275e-014 1.59028e-014
rhumerus 61.5196 -5.94598 -126.119
rradius 6.23288
rwrist 91.2067
rhand -20.4273 6.93883
rfingers 7.12502
rthumb 5.92731 -22.9583
lclavicle 2.41275e-014 1.59028e-014
lhumerus 60.1436 4.22494 101.223
lradius 8.15255
lwrist -76.3849
lhand -15.3321 4.89958
lfingers 7.12502
lthumb 10.8444 34.5996
rfemur -16.2245 -16.8845 6.68367
rtibia 66.703
rfoot 337.711 14.0306
rtoes -7.81485
lfemur -557.421 169.669 -191.639
ltibia 66.5722
lfoot -31.1259 -13.507
ltoes -0.617427
